<svg width="140px" height="100px" xmlns="http://www.w3.org/2000/svg" viewBox="0 0 370.54 80.43"><defs><style>.cls-1{fill:#74c1eb;}.cls-2{fill:#80ba89;}.cls-3{fill:#d85952;}.cls-4{fill:#f4c654;}</style></defs><title>Cta categorie</title><g id="Livello_2" data-name="Livello 2"><g id="Livello_1-2" data-name="Livello 1"><g id="Livello_2-2" data-name="Livello 2"><g id="Livello_1-2-2" data-name="Livello 1-2"><path class="cls-1" d="M243.67,75c8.75,1.75,17.68,3.51,26.55,2a13.79,13.79,0,0,0,4.42-1.51c8.56-4.78,6.05-15.37,3-23.47C272.9,39.2,269.81,38.51,265,25.7c-3.58-9.6-6.46-25.41-16-25.7s-46.55,61.42-41,66.47S243.67,75,243.67,75Z"/></g></g><g id="Livello_2-3" data-name="Livello 2"><g id="Livello_1-2-3" data-name="Livello 1-2"><path class="cls-2" d="M1.58,11C22.21,3.09,44.79,1.41,66.85,0a2.5,2.5,0,0,1,1.51.22,2.56,2.56,0,0,1,.89,1.55c6.1,21.47,12.24,43.1,14.3,65.33a4,4,0,0,1-.38,2.69,4,4,0,0,1-2,1.27c-21.58,8.43-45.32,8.84-68.48,9.14-1.13,0-2.44,0-3.16-.92a4,4,0,0,1-.67-1.76l-4-19.72C3.28,49.79,1.65,41.74.62,33.6-.43,25.23.1,10.89.45,12.16.45,12.16.2,11.57,1.58,11Z"/></g></g><g id="Livello_2-4" data-name="Livello 2"><g id="Livello_1-2-4" data-name="Livello 1-2"><path class="cls-3" d="M340.61.25c-10.87.85-10,2.17-20.57,4.81-4.16,1-8.43,2.3-11.65,5.14-6.77,6-6.49,16.43-5.58,25.42.81,8,1.7,16.13,4.48,23.7S315,74,322.05,77.83c5.4,2.93,12.3,3.71,17.62.64,6.91-4,9.08-12.67,11.75-20.19a82.89,82.89,0,0,1,9.41-18.68c4.4-6.53,10-13.19,9.69-21a18.13,18.13,0,0,0-7.29-13.32A27.51,27.51,0,0,0,348.67,0Z"/></g></g><g id="Livello_2-5" data-name="Livello 2"><g id="Livello_1-2-5" data-name="Livello 1-2"><circle class="cls-4" cx="145.55" cy="40.11" r="40.11"/></g></g></g></g></svg>