<?xml version="1.0" encoding="UTF-8"?>
<svg width="278px" height="77px" viewBox="0 0 278 77" version="1.1" xmlns="http://www.w3.org/2000/svg" xmlns:xlink="http://www.w3.org/1999/xlink">
    <!-- Generator: Sketch 49.3 (51167) - http://www.bohemiancoding.com/sketch -->
    <title>01_Main logo</title>
    <desc>Created with Sketch.</desc>
    <defs>
        <polygon id="path-1" points="0.06 0.546 6.386 0.546 6.386 32.523 0.06 32.523"></polygon>
        <polygon id="path-3" points="0.06 0.093 219.893 0.093 219.893 76.683 0.06 76.683"></polygon>
        <polygon id="path-5" points="0.808 0.254 116.681 0.254 116.681 32.94 0.808 32.94"></polygon>
        <polygon id="path-7" points="0.547 0.254 37.323 0.254 37.323 32.94 0.547 32.94"></polygon>
    </defs>
    <g id="Page-1" stroke="none" stroke-width="1" fill="none" fill-rule="evenodd">
        <g id="01_Main-logo">
            <g id="Group-3">
                <mask id="mask-2" fill="white">
                    <use xlink:href="#path-1"></use>
                </mask>
                <g id="Clip-2"></g>
                <polygon id="Fill-1" fill="#1A1919" mask="url(#mask-2)" points="0.06 32.523 6.386 32.523 6.386 0.546 0.06 0.546"></polygon>
            </g>
            <polyline id="Fill-4" fill="#1A1919" points="20.336 0.546 13.95 0.546 13.95 32.522 31.07 32.522 31.07 27.631 20.336 27.631 20.336 0.546"></polyline>
            <path d="M66.534,26.204 C65.627,26.944 64.329,27.314 62.639,27.314 L56.569,27.314 L56.569,18.527 L62.593,18.527 C64.284,18.527 65.589,18.912 66.511,19.682 C67.432,20.452 67.892,21.547 67.892,22.966 C67.892,24.385 67.439,25.465 66.534,26.204 Z M56.569,5.664 L62.231,5.664 C63.921,5.664 65.175,6.026 65.99,6.751 C66.805,7.476 67.213,8.502 67.213,9.831 C67.213,11.16 66.797,12.179 65.967,12.888 C65.137,13.598 63.921,13.953 62.321,13.953 L56.569,13.953 L56.569,5.664 Z M68.028,16.036 C69.719,15.644 71.085,14.813 72.127,13.545 C73.169,12.277 73.69,10.646 73.69,8.653 C73.69,6.087 72.822,4.094 71.085,2.675 C69.349,1.256 66.866,0.546 63.635,0.546 L50.183,0.546 L50.183,32.522 L63.907,32.522 C67.318,32.522 69.923,31.746 71.72,30.19 C73.516,28.635 74.414,26.514 74.414,23.827 C74.414,21.894 73.833,20.21 72.67,18.776 C71.508,17.342 69.96,16.429 68.028,16.036 Z" id="Fill-5" fill="#1A1919"></path>
            <path d="M94.66,7.748 L99.37,21.245 L89.949,21.245 L94.66,7.748 Z M101.091,26.091 L103.31,32.522 L110.059,32.522 L98.328,0.908 L91.036,0.908 L79.26,32.522 L86.009,32.522 L88.273,26.091 L101.091,26.091 Z" id="Fill-6" fill="#1A1919"></path>
            <g id="Group-10">
                <mask id="mask-4" fill="white">
                    <use xlink:href="#path-3"></use>
                </mask>
                <g id="Clip-8"></g>
                <path d="M212.171,21.992 C211.37,23.577 210.261,24.793 208.842,25.638 C207.422,26.484 205.776,26.906 203.904,26.906 C202.032,26.906 200.387,26.484 198.968,25.638 C197.548,24.793 196.438,23.577 195.639,21.992 C194.838,20.407 194.438,18.558 194.438,16.444 C194.438,14.331 194.838,12.48 195.639,10.895 C196.438,9.31 197.548,8.095 198.968,7.249 C200.387,6.404 202.032,5.981 203.904,5.981 C205.776,5.981 207.422,6.404 208.842,7.249 C210.261,8.095 211.37,9.31 212.171,10.895 C212.97,12.48 213.37,14.331 213.37,16.444 C213.37,18.558 212.97,20.407 212.171,21.992 Z M217.787,24.914 C219.19,22.407 219.893,19.584 219.893,16.444 C219.893,13.303 219.19,10.487 217.787,7.997 C216.383,5.505 214.465,3.565 212.034,2.176 C209.603,0.788 206.893,0.093 203.904,0.093 C200.915,0.093 198.205,0.788 195.774,2.176 C193.344,3.565 191.427,5.505 190.022,7.997 C188.618,10.487 187.916,13.303 187.916,16.444 C187.916,19.584 188.618,22.407 190.022,24.914 C191.427,27.42 193.344,29.368 195.774,30.756 C198.205,32.146 200.915,32.84 203.904,32.84 C206.893,32.84 209.603,32.146 212.034,30.756 C214.465,29.368 216.383,27.42 217.787,24.914 Z" id="Fill-7" fill="#1A1919" mask="url(#mask-4)"></path>
                <path d="M18.819,68.259 C16.932,70.07 14.267,70.976 10.825,70.976 L6.386,70.976 L6.386,50.277 L10.825,50.277 C14.267,50.277 16.932,51.183 18.819,52.995 C20.705,54.807 21.65,57.358 21.65,60.649 C21.65,63.91 20.705,66.446 18.819,68.259 Z M20.359,46.677 C17.837,45.363 14.84,44.706 11.369,44.706 L0,44.706 L0,76.683 L11.369,76.683 C14.84,76.683 17.837,76.012 20.359,74.667 C22.88,73.324 24.805,71.444 26.134,69.028 C27.462,66.613 28.126,63.819 28.126,60.649 C28.126,57.449 27.462,54.647 26.134,52.247 C24.805,49.847 22.88,47.99 20.359,46.677 Z" id="Fill-9" fill="#1A1919" mask="url(#mask-4)"></path>
            </g>
            <polyline id="Fill-11" fill="#1A1919" points="35.192 76.683 54.26 76.683 54.26 71.564 41.578 71.564 41.578 62.959 52.901 62.959 52.901 58.067 41.578 58.067 41.578 49.779 54.26 49.779 54.26 44.706 35.192 44.706 35.192 76.683"></polyline>
            <g id="Group-16" transform="translate(61.000000, 44.000000)">
                <mask id="mask-6" fill="white">
                    <use xlink:href="#path-5"></use>
                </mask>
                <g id="Clip-13"></g>
                <polygon id="Fill-12" fill="#1A1919" mask="url(#mask-6)" points="0.808 32.683 7.194 32.683 7.194 0.706 0.808 0.706"></polygon>
                <path d="M45.504,16.106 C44.221,15.472 42.553,14.792 40.499,14.067 C39.019,13.585 37.85,13.147 36.989,12.754 C36.129,12.361 35.419,11.855 34.86,11.236 C34.301,10.618 34.022,9.841 34.022,8.904 C34.022,7.727 34.385,6.828 35.109,6.209 C35.834,5.591 36.785,5.281 37.963,5.281 C39.322,5.281 40.393,5.65 41.179,6.391 C41.556,6.746 41.859,7.15 42.096,7.6 C42.29,8.01 42.432,8.416 42.529,8.797 C42.543,8.853 42.555,8.907 42.567,8.962 C42.589,9.056 42.611,9.15 42.627,9.24 L42.688,9.222 L49.108,7.254 C49.094,7.182 49.076,7.107 49.06,7.034 C48.512,5.313 47.528,3.864 46.093,2.699 C44.084,1.068 41.39,0.254 38.008,0.254 C34.747,0.254 32.127,1.046 30.15,2.631 C28.172,4.217 27.183,6.384 27.183,9.131 C27.183,11.123 27.629,12.739 28.52,13.977 C29.41,15.215 30.49,16.159 31.758,16.808 C33.026,17.457 34.657,18.114 36.649,18.778 C38.189,19.292 39.397,19.744 40.273,20.137 C41.148,20.529 41.873,21.051 42.447,21.699 C43.02,22.35 43.308,23.171 43.308,24.168 C43.308,25.285 42.952,26.199 42.243,26.908 C42.119,27.032 41.982,27.142 41.838,27.244 C41.164,27.727 40.282,27.973 39.186,27.973 C37.706,27.973 36.521,27.542 35.63,26.682 C34.86,25.938 34.368,25.029 34.151,23.958 L34.068,23.444 L27.56,25.173 C27.562,25.191 27.565,25.209 27.567,25.228 C27.87,26.434 28.38,27.532 29.108,28.516 C30.18,29.965 31.606,31.075 33.388,31.845 C35.17,32.614 37.193,33 39.457,33 C40.007,33 40.536,32.975 41.046,32.927 C42.664,32.776 44.083,32.387 45.3,31.754 C46.9,30.924 48.108,29.822 48.924,28.448 C48.973,28.364 49.017,28.279 49.063,28.194 C49.783,26.89 50.146,25.473 50.146,23.941 C50.146,21.888 49.694,20.227 48.788,18.959 C47.882,17.691 46.788,16.739 45.504,16.106" id="Fill-14" fill="#1A1919" mask="url(#mask-6)"></path>
                <path d="M112.039,16.106 C110.755,15.472 109.087,14.792 107.034,14.067 C105.554,13.585 104.384,13.147 103.523,12.754 C102.663,12.361 101.953,11.855 101.394,11.236 C100.836,10.618 100.557,9.841 100.557,8.904 C100.557,7.727 100.919,6.828 101.643,6.209 C102.369,5.591 103.319,5.281 104.497,5.281 C105.856,5.281 106.928,5.65 107.713,6.391 C108.09,6.746 108.393,7.15 108.631,7.6 C108.824,7.966 108.962,8.369 109.063,8.797 C109.077,8.853 109.09,8.907 109.102,8.962 C109.12,9.05 109.148,9.131 109.163,9.222 L109.223,9.222 L115.643,7.254 C115.628,7.182 115.61,7.107 115.595,7.034 C115.046,5.313 114.062,3.864 112.627,2.699 C110.619,1.068 107.924,0.254 104.543,0.254 C101.281,0.254 98.661,1.046 96.685,2.631 C94.706,4.217 93.718,6.384 93.718,9.131 C93.718,11.123 94.163,12.739 95.054,13.977 C95.944,15.215 97.024,16.159 98.292,16.808 C99.56,17.457 101.191,18.114 103.184,18.778 C104.724,19.292 105.932,19.744 106.808,20.137 C107.683,20.529 108.407,21.051 108.981,21.699 C109.555,22.35 109.842,23.171 109.842,24.168 C109.842,25.285 109.486,26.199 108.777,26.908 C108.653,27.032 108.517,27.142 108.373,27.244 C107.698,27.727 106.816,27.973 105.721,27.973 C104.24,27.973 103.055,27.542 102.165,26.682 C101.394,25.938 100.902,25.029 100.685,23.958 L100.602,23.444 L94.094,25.173 C94.097,25.191 94.1,25.209 94.102,25.228 C94.404,26.434 94.915,27.532 95.643,28.516 C96.714,29.965 98.141,31.075 99.923,31.845 C101.704,32.614 103.727,33 105.992,33 C106.542,33 107.07,32.975 107.58,32.927 C109.198,32.776 110.617,32.387 111.835,31.754 C113.435,30.924 114.643,29.822 115.458,28.448 C115.508,28.364 115.551,28.279 115.598,28.194 C116.316,26.89 116.681,25.473 116.681,23.941 C116.681,21.888 116.228,20.227 115.322,18.959 C114.416,17.691 113.321,16.739 112.039,16.106" id="Fill-15" fill="#1A1919" mask="url(#mask-6)"></path>
            </g>
            <path d="M174.694,21.32 C174.69,21.331 174.686,21.342 174.684,21.353 C174.387,22.083 174.018,22.745 173.581,23.345 C172.996,24.151 172.29,24.842 171.453,25.412 C170.026,26.382 168.318,26.876 166.333,26.901 C166.28,26.902 166.229,26.906 166.177,26.906 C165.305,26.906 164.477,26.792 163.694,26.567 C162.958,26.356 162.261,26.047 161.602,25.638 C160.243,24.793 159.185,23.585 158.432,22.015 C157.677,20.445 157.299,18.618 157.299,16.534 C157.299,14.421 157.677,12.579 158.432,11.008 C158.744,10.358 159.111,9.774 159.527,9.248 C160.116,8.504 160.806,7.88 161.602,7.385 C162.961,6.54 164.485,6.117 166.177,6.117 C166.937,6.117 167.657,6.186 168.337,6.323 C169.492,6.555 170.531,6.984 171.453,7.611 C171.711,7.787 171.953,7.979 172.187,8.177 C173.266,9.088 174.092,10.236 174.664,11.624 C174.67,11.649 174.677,11.673 174.681,11.699 L174.741,11.699 L174.779,11.688 L180.386,9.97 L180.831,9.833 C180.196,8.064 179.304,6.51 178.144,5.176 C177.557,4.5 176.909,3.874 176.186,3.309 C175.843,3.041 175.487,2.792 175.12,2.559 C172.683,1.007 169.732,0.229 166.268,0.229 C163.187,0.229 160.484,0.916 158.16,2.29 C155.834,3.664 154.03,5.589 152.747,8.064 C151.464,10.54 150.822,13.364 150.822,16.534 C150.822,19.675 151.464,22.483 152.747,24.959 C154.03,27.435 155.842,29.36 158.183,30.733 C159.48,31.496 160.892,32.039 162.408,32.378 C163.626,32.65 164.909,32.794 166.268,32.794 C170.253,32.794 173.56,31.768 176.186,29.714 C178.321,28.046 179.858,25.881 180.814,23.234 C180.82,23.211 180.827,23.188 180.833,23.165 L174.745,21.335 L174.694,21.32" id="Fill-17" fill="#1A1919"></path>
            <path d="M196.069,59.698 L191.495,59.698 L191.495,49.87 L196.069,49.87 C198.062,49.87 199.496,50.293 200.372,51.138 C201.248,51.983 201.685,53.206 201.685,54.807 C201.685,58.067 199.812,59.698 196.069,59.698 Z M196.749,44.706 L185.108,44.706 L185.108,76.683 L191.495,76.683 L191.495,64.816 L196.749,64.816 C200.401,64.816 203.218,63.91 205.196,62.099 C207.173,60.287 208.162,57.856 208.162,54.807 C208.162,51.697 207.204,49.235 205.286,47.424 C203.368,45.612 200.522,44.706 196.749,44.706 Z" id="Fill-18" fill="#1A1919"></path>
            <polyline id="Fill-19" fill="#1A1919" points="215.047 76.683 234.115 76.683 234.115 71.564 221.434 71.564 221.434 62.959 232.757 62.959 232.757 58.067 221.434 58.067 221.434 49.779 234.115 49.779 234.115 44.706 215.047 44.706 215.047 76.683"></polyline>
            <g id="Group-23" transform="translate(240.000000, 44.000000)">
                <mask id="mask-8" fill="white">
                    <use xlink:href="#path-7"></use>
                </mask>
                <g id="Clip-21"></g>
                <polygon id="Fill-20" fill="#1A1919" mask="url(#mask-8)" points="30.937 32.683 37.323 32.683 37.323 0.706 30.937 0.706"></polygon>
                <path d="M18.867,16.106 C17.584,15.472 15.916,14.792 13.862,14.067 C12.383,13.585 11.213,13.147 10.352,12.754 C9.492,12.361 8.782,11.855 8.224,11.236 C7.665,10.618 7.386,9.841 7.386,8.904 C7.386,7.727 7.748,6.828 8.473,6.209 C9.197,5.591 10.148,5.281 11.326,5.281 C12.685,5.281 13.756,5.65 14.542,6.391 C14.919,6.746 15.222,7.15 15.46,7.6 C15.653,7.966 15.791,8.369 15.892,8.797 C15.906,8.853 15.918,8.907 15.931,8.962 C15.948,9.05 15.977,9.131 15.991,9.222 L16.052,9.222 L22.472,7.254 C22.457,7.182 22.439,7.107 22.423,7.034 C21.875,5.313 20.892,3.864 19.456,2.699 C17.447,1.068 14.753,0.254 11.371,0.254 C8.11,0.254 5.49,1.046 3.514,2.631 C1.535,4.217 0.547,6.384 0.547,9.131 C0.547,11.123 0.992,12.739 1.883,13.977 C2.772,15.215 3.852,16.159 5.121,16.808 C6.39,17.457 8.019,18.114 10.013,18.778 C11.553,19.292 12.76,19.744 13.636,20.137 C14.512,20.529 15.236,21.051 15.81,21.699 C16.384,22.35 16.671,23.171 16.671,24.168 C16.671,25.285 16.315,26.199 15.606,26.908 C15.482,27.032 15.345,27.142 15.202,27.244 C14.527,27.727 13.644,27.973 12.549,27.973 C11.069,27.973 9.884,27.542 8.993,26.682 C8.224,25.938 7.73,25.029 7.514,23.958 L7.431,23.444 L0.923,25.173 C0.925,25.191 0.928,25.209 0.93,25.228 C1.233,26.434 1.743,27.532 2.472,28.516 C3.543,29.965 4.97,31.075 6.752,31.845 C8.533,32.614 10.557,33 12.821,33 C13.37,33 13.899,32.975 14.409,32.927 C16.027,32.776 17.446,32.387 18.663,31.754 C20.264,30.924 21.472,29.822 22.287,28.448 C22.337,28.364 22.38,28.279 22.427,28.194 C23.145,26.89 23.51,25.473 23.51,23.941 C23.51,21.888 23.057,20.227 22.151,18.959 C21.245,17.691 20.15,16.739 18.867,16.106" id="Fill-22" fill="#1A1919" mask="url(#mask-8)"></path>
            </g>
            <path d="M122.605,26.867 L122.605,10.782 L131.593,24.435 C131.988,24.414 132.386,24.402 132.787,24.402 C136.591,24.402 140.171,25.358 143.304,27.039 L143.304,0.546 L136.917,0.546 L136.917,22.467 L122.605,0.546 L116.219,0.546 L116.219,31.79 C118.022,29.785 120.185,28.113 122.605,26.867" id="Fill-24" fill="#1A1919"></path>
            <path d="M132.787,30.681 C123.636,30.681 116.219,38.099 116.219,47.248 C116.219,56.398 123.636,63.816 132.787,63.816 C141.936,63.816 149.354,56.398 149.354,47.248 C149.354,38.099 141.936,30.681 132.787,30.681" id="Fill-25" fill="#EEBF5D"></path>
        </g>
    </g>
</svg>